HIERARCHY
ROOT Hips
{
  OFFSET 279.157 85.6768 304.565
  CHANNELS 6 Xposition Yposition Zposition Zrotation Xrotation Yrotation
  JOINT LeftUpLeg
  {
    OFFSET 8.64259 1.95398 -2.38835
    CHANNELS 3 Zrotation Xrotation Yrotation
    JOINT LeftLeg
    {
      OFFSET 43.7702 0 0
      CHANNELS 3 Zrotation Xrotation Yrotation
      JOINT LeftFoot
      {
        OFFSET 40.6238 0 0
        CHANNELS 3 Zrotation Xrotation Yrotation
        JOINT LeftToeBase
        {
          OFFSET 12.7242 0 0
          CHANNELS 3 Zrotation Xrotation Yrotation
          End Site
          {
            OFFSET 0 0 0
          }
        }
      }
    }
  }
  JOINT RightUpLeg
  {
    OFFSET -8.2249 1.95398 -2.59336
    CHANNELS 3 Zrotation Xrotation Yrotation
    JOINT RightLeg
    {
      OFFSET 43.5653 0 0
      CHANNELS 3 Zrotation Xrotation Yrotation
      JOINT RightFoot
      {
        OFFSET 40.6238 0 0
        CHANNELS 3 Zrotation Xrotation Yrotation
        JOINT RightToeBase
        {
          OFFSET 12.7242 0 0
          CHANNELS 3 Zrotation Xrotation Yrotation
          End Site
          {
            OFFSET 0 0 0
          }
        }
      }
    }
  }
  JOINT Spine
  {
    OFFSET 0.165834 0.87714 6.61349
    CHANNELS 3 Zrotation Xrotation Yrotation
    JOINT Spine1
    {
      OFFSET 7.38963 1.71661e-005 0
      CHANNELS 3 Zrotation Xrotation Yrotation
      JOINT Spine2
      {
        OFFSET 11.9445 1.14441e-005 0
        CHANNELS 3 Zrotation Xrotation Yrotation
        JOINT Spine3
        {
          OFFSET 14.7254 4.19617e-005 0
          CHANNELS 3 Zrotation Xrotation Yrotation
          JOINT Spine4
          {
            OFFSET 10.9679 0 0
            CHANNELS 3 Zrotation Xrotation Yrotation
            JOINT RightShoulder
            {
              OFFSET 2.46616 -1.6653 3.69651
              CHANNELS 3 Zrotation Xrotation Yrotation
              JOINT RightArm
              {
                OFFSET 13.0012 0 0
                CHANNELS 3 Zrotation Xrotation Yrotation
                JOINT RightForeArm
                {
                  OFFSET 28.7848 1.52588e-005 0
                  CHANNELS 3 Zrotation Xrotation Yrotation
                  JOINT RightHand
                  {
                    OFFSET 26.5688 1.52588e-005 0
                    CHANNELS 3 Zrotation Xrotation Yrotation
                    End Site
                    {
                      OFFSET 0 0 0
                    }
                  }
                }
              }
            }
            JOINT LeftShoulder
            {
              OFFSET 2.38034 -1.29275 -3.7523
              CHANNELS 3 Zrotation Xrotation Yrotation
              JOINT LeftArm
              {
                OFFSET 16.3182 6.10351e-005 0
                CHANNELS 3 Zrotation Xrotation Yrotation
                JOINT LeftForeArm
                {
                  OFFSET 27.0901 0 0
                  CHANNELS 3 Zrotation Xrotation Yrotation
                  JOINT LeftHand
                  {
                    OFFSET 24.5451 1.52588e-005 0
                    CHANNELS 3 Zrotation Xrotation Yrotation
                    End Site
                    {
                      OFFSET 0 0 0
                    }
                  }
                }
              }
            }
            JOINT Neck
            {
              OFFSET 5.0226 -0.0266342 0
              CHANNELS 3 Zrotation Xrotation Yrotation
              JOINT Head
              {
                OFFSET 6.69364 2.86102e-005 0
                CHANNELS 3 Zrotation Xrotation Yrotation
                End Site
                {
                  OFFSET 0 0 0
                }
              }
            }
          }
        }
      }
    }
  }
}
MOTION
Frames:	10
Frame Time:	0.0416667
-146.941 87.5714 -120.401 70.567 -33.9694 76.2405 -169.318 1.21624 89.6978 -29.5412 13.6926 -3.58513 92.895 24.8969 -1.83349 42.6672 7.05608 2.77079 -164.853 63.2295 85.5792 -89.4502 3.45114 -5.99315 83.0618 -13.1394 -7.04268 20.9561 0.601837 10.5146 -3.2097 8.44184 -89.6322 10.0344 -6.22908 1.24667 -1.62242 -6.16817 1.52061 -24.2779 -6.31466 -0.690729 -4.26528 -6.31466 -0.690738 99.1317 -26.9368 -88.6225 51.4124 -28.3919 55.2839 -51.0501 -42.9407 -59.5257 -41.4378 -2.24927 -11.6488 -85.6142 -15.1251 77.2822 -9.04798 -19.6257 -69.1049 50.0326 10.4605 -82.4754 33.1326 -2.80506 -12.8147 41.2336 3.47038 -16.4316 -14.7547 11.3641 2.43122 
-137.957 89.8497 -114.011 68.1798 -38.2348 78.7875 -170.921 -8.78703 90.0804 -15.4901 12.9451 -1.35088 71.8636 11.9922 1.54293 53.5811 12.6559 2.02961 -168.279 65.6805 91.7756 -73.0162 -0.932462 -5.80149 82.3297 -12.2254 -4.84386 19.6423 1.44196 8.01186 -3.33389 8.60887 -90.4466 9.65934 -6.84817 -0.353555 -1.99343 -6.85704 -0.0503608 -24.6608 -6.42399 -2.40387 -4.64819 -6.42399 -2.40387 98.7159 -22.2823 -90.1504 50.9753 -21.3391 60.4392 -48.9157 -35.7737 -59.2485 -42.2541 -0.794273 -14.7739 -82.9243 -5.83268 81.0623 -16.4929 -23.5209 -68.6018 50.1159 9.91475 -83.6973 32.9235 -4.02713 -16.6993 50.3565 6.93295 -14.0691 -20.3452 14.4285 2.45206 
-127.9 91.9567 -106.973 67.104 -43.6831 81.5521 -173.676 -12.6975 90.8637 -13.3846 11.6252 1.34911 52.6343 -2.68883 1.93365 43.0674 8.09241 -11.111 -176.496 61.9644 101.344 -55.3726 -10.469 -2.8908 77.5295 -9.64823 -2.56726 23.5926 0.583836 6.78987 -2.98879 8.85771 -91.2135 9.10615 -6.50361 -1.94459 -2.5495 -6.58287 -1.65536 -25.1767 -5.61808 -3.81392 -5.16401 -5.61809 -3.81395 92.9293 -18.6935 -104.98 52.5743 -3.846 64.3514 -44.6924 -31.0012 -61.3595 -47.0861 0.320315 -15.8721 -82.7808 -5.04567 81.2356 -16.3765 -21.4966 -65.9194 49.3301 9.03406 -83.1937 31.7767 -5.1422 -20.7166 54.5778 10.6589 -10.4958 -22.8579 16.0907 2.31107 
-118.644 92.7453 -99.5721 66.4231 -47.4792 81.4448 -174.135 -12.464 89.2146 -22.5794 18.3969 1.18187 52.5378 -4.30359 2.16909 18.0241 -6.4633 2.11005 177.507 56.8418 106.333 -44.7233 -16.9023 1.23019 76.5629 -9.80979 -2.57023 27.7466 -0.617016 7.07032 -2.61343 8.82617 -91.6221 9.14522 -5.93788 -2.79119 -2.51457 -6.05491 -2.52646 -25.1036 -4.82492 -4.44844 -5.09095 -4.8249 -4.44843 88.4603 -14.6062 -118.341 54.7744 7.56553 63.5141 -38.9662 -27.8379 -64.072 -47.4499 1.0178 -16.1875 -84.0208 -11.242 79.9295 -14.7872 -12.4187 -62.0177 52.408 7.21096 -85.4381 28.6615 -4.10009 -18.7671 50.5456 14.6544 -5.24289 -19.5655 16.6009 0.700306 
-110.51 92.3326 -92.4648 68.1841 -48.3601 80.1801 -171.938 -8.89403 87.8493 -39.1451 20.9681 -1.33349 53.7992 -3.53409 1.20917 28.808 0.912411 -4.14303 174.092 51.0852 105.689 -43.6322 -10.5339 3.80808 76.2726 -9.20099 -2.06959 28.4565 -0.805115 6.92196 -2.56061 8.88005 -91.6067 9.04035 -5.82475 -2.77514 -2.61994 -5.94119 -2.51546 -25.2061 -4.72184 -4.39895 -5.19344 -4.72184 -4.39895 86.1615 -24.9121 -116.996 44.8498 6.01029 52.9828 -35.5793 -24.4686 -66.5783 -48.1096 1.43296 -15.956 -86.8449 -22.5681 77.2698 -10.8482 -0.383521 -55.543 59.3086 6.13547 -88.0158 30.8499 -1.74696 -9.91183 50.6994 16.6505 -3.09764 -19.2535 17.2041 0.691365 
-102.306 92.1857 -85.1124 71.6838 -49.2507 81.6986 -167.95 -0.724539 89.6236 -60.4568 14.7408 -1.94848 49.7334 -6.42321 0.675744 25.1675 0.388239 -8.89505 171.954 44.1367 103.535 -47.6179 -9.01433 5.63409 74.699 -7.49422 -1.71711 18.9674 2.30758 5.03998 -2.35396 9.01557 -91.5949 8.77124 -5.40447 -2.79927 -2.89095 -5.52239 -2.55824 -25.4646 -4.31385 -4.29499 -5.45197 -4.31385 -4.29499 86.7766 -32.6769 -111.883 35.7562 4.19831 35.9747 -37.5172 -23.4069 -69.8825 -48.284 0.804501 -14.4132 -90.3722 -35.3026 74.32 -8.17848 12.8366 -43.2737 63.8442 4.08863 -87.8688 28.7708 -1.81196 -10.6019 49.0255 17.176 -1.5161 -16.264 16.8112 0.53563 
-94.5436 91.9427 -77.8444 72.0009 -52.0386 83.8457 -163.971 11.4979 93.5076 -78.9001 6.21943 -0.330711 52.4339 -4.276 3.22897 23.3305 -0.819155 -7.50304 171.405 37.265 104.756 -51.0439 -10.6446 5.73466 79.8455 -11 -1.17831 22.4477 0.942054 6.59757 -1.75819 8.94338 -91.9819 8.90503 -4.38975 -3.62547 -2.76303 -4.54496 -3.42875 -25.2913 -3.09854 -4.77594 -5.27867 -3.09854 -4.77594 87.9361 -33.5861 -109.324 31.9069 7.59581 17.9615 -36.4892 -20.9046 -73.6659 -45.8746 1.12127 -15.1064 -92.6028 -46.308 73.8669 -10.8355 24.6246 -20.2851 61.8421 0.878364 -86.2611 26.3858 -1.67755 -10.5548 43.3536 18.4905 4.33886 -10.9374 15.3092 -1.67703 
-87.3921 91.3324 -71.4361 69.3269 -59.1666 83.27 -162.022 27.2333 94.9655 -93.5277 6.76431 1.77743 57.2225 -0.442279 6.78521 20.2617 -1.58332 -9.65345 174.4 30.8143 105.905 -52.0445 -12.9369 3.99355 84.9348 -14.6338 -0.634804 23.9803 0.174628 8.50818 -0.566914 8.83264 -92.0359 9.15906 -2.04174 -3.88796 -2.51587 -2.21073 -3.79452 -25.007 -0.78012 -4.32102 -4.9944 -0.780113 -4.32102 87.7062 -33.0203 -109.988 31.0867 11.4104 -0.740797 -39.3504 -17.2803 -79.8734 -47.0838 0.762154 -14.0388 -90.6045 -47.4467 77.2455 -21.9328 29.0402 11.4271 64.405 -6.47807 -87.5623 22.7794 -1.41467 -10.3116 39.8874 17.7679 6.72476 -8.82867 13.6247 -1.18366 
-80.4243 90.8518 -64.5185 66.7125 -64.7271 79.2014 -164.853 40.304 95.4898 -100.357 11.6266 3.26463 63.4471 4.52285 9.8906 18.1732 -3.20057 -7.51486 178.092 23.1774 103.159 -51.1892 -13.7194 0.814233 89.0333 -17.6391 0.18788 29.2599 -1.09076 7.57831 0.695973 8.57405 -91.625 9.72547 0.652209 -3.27685 -1.94952 0.50744 -3.30235 -24.4583 1.60649 -2.92987 -4.44563 1.6065 -2.92987 87.5561 -29.6038 -111.735 31.2161 19.544 -18.3669 -35.0527 -15.1035 -86.4856 -49.5161 1.55729 -14.6132 -87.0143 -41.8199 81.7468 -33.8448 32.8239 41.5425 64.8121 -15.4678 -87.5907 28.6273 -1.12462 -8.15936 35.1842 15.0605 7.98016 -6.61003 10.8549 -1.72236 
-72.8492 91.2567 -56.9921 67.5091 -65.7353 75.4482 -171.083 48.77 95.2726 -96.899 6.67444 3.80757 69.4638 7.89202 8.64137 19.8919 -2.25426 -7.99736 178.478 12.8363 96.57 -46.4022 -15.3771 -2.01908 89.599 -19.3797 -1.10907 32.7667 -2.07208 8.17799 1.91007 8.27915 -91.126 10.35 3.28989 -2.52422 -1.31957 3.17565 -2.66657 -23.8799 3.89623 -1.41801 -3.8673 3.89622 -1.41802 90.1665 -23.1601 -109.24 31.4996 31.2021 -30.7585 -36.9384 -16.4094 -94.7697 -49.0696 0.848631 -13.5202 -85.1542 -33.6712 83.4223 -43.9408 38.4146 63.347 61.8366 -22.8999 -85.1543 30.675 -1.79263 -10.1183 29.4195 10.2688 10.6922 -4.25189 5.68256 -3.46767 
